<svg width="47" height="51" viewBox="0 0 47 51" fill="none" xmlns="http://www.w3.org/2000/svg">
<path d="M44.2966 6.67286C45.9779 4.83793 45.6836 3.47321 44.4139 2.30973C43.1441 1.14625 41.5542 0.784489 39.8728 2.61942L2.2236 43.7083C0.542275 45.5433 1.04369 47.093 2.31347 48.2564C3.58325 49.4199 4.96604 49.5967 6.64736 47.7618L44.2966 6.67286Z" fill="black"/>
<path d="M40.3425 47.4169C42.0297 49.2465 43.5585 48.9659 44.75 47.8671C45.9416 46.7682 46.4763 45.2674 44.7891 43.4379L7.00878 2.4695C5.3216 0.639948 3.6946 0.956286 2.50303 2.05514C1.31145 3.15399 0.68858 4.46651 2.37576 6.29606L40.3425 47.4169Z" fill="black"/>
</svg>
