<svg width="90" height="90" viewBox="0 0 90 90" fill="none" xmlns="http://www.w3.org/2000/svg">
<circle cx="45" cy="45" r="45" fill="#4A378A"/>
<path d="M62.417 44.5002V58.8335C62.417 59.7839 62.0395 60.6953 61.3675 61.3673C60.6955 62.0393 59.784 62.4168 58.8337 62.4168H30.167C29.2166 62.4168 28.3052 62.0393 27.6332 61.3673C26.9612 60.6953 26.5837 59.7839 26.5837 58.8335V44.5002C26.1085 44.5002 25.6528 44.3114 25.3168 43.9754C24.9808 43.6394 24.792 43.1837 24.792 42.7085V37.3335C24.792 36.3831 25.1695 35.4717 25.8415 34.7997C26.5135 34.1277 27.425 33.7502 28.3753 33.7502H34.0549C33.8524 33.1746 33.7494 32.5687 33.7503 31.9585C33.7503 30.533 34.3166 29.1658 35.3246 28.1578C36.3326 27.1498 37.6998 26.5835 39.1253 26.5835C40.917 26.5835 42.4937 27.4793 43.4791 28.8052V28.7872L44.5003 30.1668L45.5216 28.7872V28.8052C46.507 27.4793 48.0837 26.5835 49.8753 26.5835C51.3009 26.5835 52.668 27.1498 53.676 28.1578C54.684 29.1658 55.2503 30.533 55.2503 31.9585C55.2512 32.5687 55.1482 33.1746 54.9457 33.7502H60.6253C61.5757 33.7502 62.4871 34.1277 63.1591 34.7997C63.8311 35.4717 64.2087 36.3831 64.2087 37.3335V42.7085C64.2087 43.1837 64.0199 43.6394 63.6839 43.9754C63.3479 44.3114 62.8922 44.5002 62.417 44.5002ZM30.167 58.8335H42.7087V44.5002H30.167V58.8335ZM58.8337 58.8335V44.5002H46.292V58.8335H58.8337ZM39.1253 30.1668C38.6501 30.1668 38.1944 30.3556 37.8584 30.6916C37.5224 31.0276 37.3337 31.4833 37.3337 31.9585C37.3337 32.4337 37.5224 32.8894 37.8584 33.2254C38.1944 33.5614 38.6501 33.7502 39.1253 33.7502C39.6005 33.7502 40.0562 33.5614 40.3922 33.2254C40.7282 32.8894 40.917 32.4337 40.917 31.9585C40.917 31.4833 40.7282 31.0276 40.3922 30.6916C40.0562 30.3556 39.6005 30.1668 39.1253 30.1668ZM49.8753 30.1668C49.4001 30.1668 48.9444 30.3556 48.6084 30.6916C48.2724 31.0276 48.0837 31.4833 48.0837 31.9585C48.0837 32.4337 48.2724 32.8894 48.6084 33.2254C48.9444 33.5614 49.4001 33.7502 49.8753 33.7502C50.3505 33.7502 50.8062 33.5614 51.1422 33.2254C51.4782 32.8894 51.667 32.4337 51.667 31.9585C51.667 31.4833 51.4782 31.0276 51.1422 30.6916C50.8062 30.3556 50.3505 30.1668 49.8753 30.1668ZM28.3753 37.3335V40.9168H42.7087V37.3335H28.3753ZM46.292 37.3335V40.9168H60.6253V37.3335H46.292Z" fill="white"/>
</svg>
