<svg width="65" height="46" viewBox="0 0 65 46" fill="none" xmlns="http://www.w3.org/2000/svg">
<path d="M2.70848 6H62.2915C63.7879 6 65 4.65737 65 3C65 1.34263 63.7879 0 62.2915 0H2.70848C1.21216 0 0 1.34263 0 3C0 4.65737 1.21216 6 2.70848 6Z" fill="black"/>
<path d="M62.2878 20H2.70848C1.21216 20 0 21.3426 0 23C0 24.6574 1.21216 26 2.70848 26H62.2915C63.7879 26 65 24.6574 65 23C65 21.3426 63.7879 20 62.2915 20H62.2878Z" fill="black"/>
<path d="M62.2878 40H2.70848C1.21216 40 0 41.3426 0 43C0 44.6574 1.21216 46 2.70848 46H62.2915C63.7879 46 65 44.6574 65 43C65 41.3426 63.7879 40 62.2915 40H62.2878Z" fill="black"/>
</svg>
