<svg width="40" height="40" viewBox="0 0 40 40" fill="none" xmlns="http://www.w3.org/2000/svg">
<circle cx="20" cy="20" r="18.5" stroke="#8882FB" stroke-width="3"/>
<path d="M15 13.001C14.9997 13.5314 14.7888 14.04 14.4135 14.4149C14.0382 14.7898 13.5294 15.0003 12.999 15C12.4686 14.9997 11.96 14.7888 11.5851 14.4135C11.2102 14.0382 10.9997 13.5294 11 12.999C11.0003 12.4686 11.2112 11.96 11.5865 11.5851C11.9618 11.2102 12.4706 10.9997 13.001 11C13.5314 11.0003 14.04 11.2112 14.4149 11.5865C14.7898 11.9618 15.0003 12.4706 15 13.001ZM15.06 16.481H11.06V29.001H15.06V16.481ZM21.38 16.481H17.4V29.001H21.34V22.431C21.34 18.771 26.11 18.431 26.11 22.431V29.001H30.06V21.071C30.06 14.901 23 15.131 21.34 18.161L21.38 16.481Z" fill="#8882FB"/>
</svg>
