<svg width="90" height="90" viewBox="0 0 90 90" fill="none" xmlns="http://www.w3.org/2000/svg">
<circle cx="45" cy="45" r="45" fill="#4A378A"/>
<path d="M60.6667 45.4167V32.6542C60.6668 32.493 60.6351 32.3334 60.5735 32.1845C60.5118 32.0357 60.4214 31.9004 60.3073 31.7865L53.8802 25.3593C53.6507 25.1295 53.3393 25.0003 53.0145 25H29.225C28.9001 25 28.5885 25.1291 28.3588 25.3588C28.1291 25.5885 28 25.9001 28 26.225V64.6083C28 64.9332 28.1291 65.2448 28.3588 65.4745C28.5885 65.7043 28.9001 65.8333 29.225 65.8333H42.2917M36.1667 41.3333H52.5M36.1667 33.1667H44.3333M36.1667 49.5H42.2917M56.4894 55.5025L58.5311 53.4608C58.7435 53.2479 58.9958 53.0789 59.2737 52.9636C59.5515 52.8483 59.8493 52.789 60.1501 52.789C60.4509 52.789 60.7488 52.8483 61.0266 52.9636C61.3044 53.0789 61.5568 53.2479 61.7692 53.4608C61.9818 53.6732 62.1505 53.9254 62.2657 54.2031C62.3808 54.4807 62.44 54.7783 62.44 55.0789C62.44 55.3794 62.3808 55.677 62.2657 55.9546C62.1505 56.2323 61.9818 56.4845 61.7692 56.6969L59.7275 58.7385L56.4894 55.5005L50.3828 61.6071C50.0775 61.9134 49.8773 62.3087 49.8111 62.7361L49.313 65.915L52.4918 65.4189C52.9192 65.3527 53.3146 65.1525 53.6209 64.8472L59.7255 58.7385" stroke="white" stroke-width="2" stroke-linecap="round" stroke-linejoin="round"/>
<path d="M52.5 25V31.9417C52.5 32.2666 52.6291 32.5781 52.8588 32.8079C53.0885 33.0376 53.4001 33.1667 53.725 33.1667H60.6667" stroke="white" stroke-width="2" stroke-linecap="round" stroke-linejoin="round"/>
</svg>
